PathFileType	4	(X/Y/Z)	63_2_31_p0_0-314_filt_butterworth.trc
DataRate	CameraRate	NumFrames	NumMarkers	Units	OrigDataRate	OrigDataStartFrame	OrigNumFrames
47.0	47.0	5	27	m	47.0	235	314
Frame#	Time	RHip			RKnee			RAnkle			RBigToe			RSmallToe			RHeel			LHip			LKnee			LAnkle			LBigToe			LSmallToe			LHeel			Neck			Head			Nose			RShoulder			RElbow			RWrist			RThumb			RIndex			RPinky			LShoulder			LElbow			LWrist			LThumb			LIndex			LPinky			
		X1	Y1	Z1	X2	Y2	Z2	X3	Y3	Z3	X4	Y4	Z4	X5	Y5	Z5	X6	Y6	Z6	X7	Y7	Z7	X8	Y8	Z8	X9	Y9	Z9	X10	Y10	Z10	X11	Y11	Z11	X12	Y12	Z12	X13	Y13	Z13	X14	Y14	Z14	X15	Y15	Z15	X16	Y16	Z16	X17	Y17	Z17	X18	Y18	Z18	X19	Y19	Z19	X20	Y20	Z20	X21	Y21	Z21	X22	Y22	Z22	X23	Y23	Z23	X24	Y24	Z24	X25	Y25	Z25	X26	Y26	Z26	X27	Y27	Z27	
235	5.0	0.32661110196098236	0.7060747288423537	0.7428645970987686	0.3100434431063315	0.3333646136420761	0.7089128422123878	0.32285009752535515	-0.10817394437509725	0.787979894833799	0.27145809846079394	-0.09066336443679915	0.5913209356330391	0.3300821690892526	-0.0980705160561597	0.6228684468230591	0.33396785626496966	-0.19621294414971424	0.8782183441245426	0.1413948884348033	0.7015664605007166	0.7373120531922295	0.1703184784578619	0.31859246381353284	0.7389754309695676	0.19648614564302797	-0.12833822617168403	0.8226879039510872	0.13861246343797487	-0.10331165503925924	0.6230867456160268	0.1067831892890332	-0.12181747272079564	0.6907964796574128	0.20923252261939457	-0.23653697548648775	0.9208078416131683	0.19309216944492363	1.2799433662242803	0.7059837741675343	0.16396932791043156	1.5231241396099073	0.6359388587262811	0.17583973123444907	1.3962610175574868	0.5727038573770082	0.34287978895548576	1.1918132506057284	0.7177382235147546	0.4117974857471476	0.9258791306898183	0.8005248136027887	0.4904764792984615	0.7285526054826208	0.7611284069317509	0.5027378107390449	0.6169135435548426	0.7578021617701052	0.5210718587143279	0.6048252176874458	0.7563891639771936	0.5034431234108984	0.6020619705613067	0.7534430491005488	0.035890756046711624	1.1758040331070487	0.7448700909997543	0.037311005755460244	0.9209301590828031	0.7310924406363652	0.07859980592222075	0.8224192811788746	0.573222187499324	0.1152040718693143	0.8164364416741315	0.4508940331475172	0.10043076308797567	0.8122718052296019	0.4067526605574414	0.0839825360647061	0.7639192208826773	0.4658807485479197	
236	5.0212765957446805	0.328410390416643	0.7066524458662717	0.74057400316116	0.3128414635054491	0.32339361086525975	0.7238442541925039	0.3193475841069398	-0.11381393274046059	0.7907649226815158	0.281352900164733	-0.09989823091875429	0.5979500908023548	0.3343593669587902	-0.10350811083991977	0.6267753130447999	0.32972972261678585	-0.2018607391839714	0.8813799225518153	0.14243331878270293	0.7019613646399844	0.7356556919425453	0.17053269606272084	0.3195587632969308	0.7327056516205063	0.1952504466714656	-0.12608284235376005	0.8216029448211852	0.14105999113309686	-0.1013478665687782	0.6201695011552923	0.10968352083738453	-0.11366975195594202	0.6767352610598603	0.20742223210433602	-0.23559774461548963	0.9230601864401234	0.19603887541001605	1.2794539217150658	0.7063000342245018	0.16588546395252524	1.5224939585504929	0.6354001103672333	0.17942886831373184	1.3953695510061446	0.5655529664952318	0.3453135641670224	1.1915450655166293	0.7154333318553432	0.4123799778404752	0.9226545321342153	0.7968450070573142	0.4809611134726417	0.7213381793174304	0.7343166025142686	0.4902929170123149	0.6130335678518594	0.7203713919427219	0.5096459324324332	0.5976103650193457	0.7266422248926985	0.5002324895018643	0.5927662568767931	0.7313714483509737	0.03761551565262184	1.174830795357366	0.7462130629715058	0.04186337252912939	0.9136761705697916	0.7351012409113731	0.07981394055426239	0.7957107606403385	0.5813338718306527	0.11505355118321912	0.7766727303780209	0.4747781612839653	0.09935756161762502	0.7710495818746937	0.4316155978193875	0.08228938280249097	0.7287647887289872	0.4938327040653968	
237	5.042553191489362	0.3301108921246911	0.7071774141763425	0.7385749892416472	0.315869000091032	0.314096469869095	0.7381372532848832	0.31622953749271826	-0.11969781492450503	0.7942050877001839	0.2929802939960333	-0.10772451031440063	0.6049385144766785	0.34121363651059333	-0.10881285319263014	0.6325129501595887	0.32570453796499016	-0.20752872148292936	0.8849152666899078	0.14336195433864304	0.702254796645502	0.7342154881788684	0.1704105985326504	0.3213997697807247	0.7248417104058934	0.19384328269340367	-0.12357216028439935	0.8207166813082603	0.14404216720181848	-0.09997396631910421	0.6178983467070303	0.11231237149465534	-0.10629477736291491	0.6636341246592893	0.20522534074226448	-0.23441588905676056	0.9257176657119636	0.19875203665809288	1.2791490126961451	0.7061505705962492	0.1680805749950467	1.5222928143906023	0.6347019785397252	0.1828066899771239	1.394597750424727	0.5591722560595866	0.34804352511895764	1.1909335467358368	0.7132380031691988	0.4133977999614562	0.9206874712190432	0.792073834435554	0.47045042703706985	0.7120910626574594	0.7130580005319592	0.4768979164698482	0.609716323707485	0.6824423639967383	0.49574042170080856	0.5940086666327551	0.6919534269713468	0.4972153965917634	0.5828979972076264	0.7155857369695642	0.04008026075724952	1.1743086138962455	0.7461789151070004	0.04664283796837877	0.9073563505827926	0.7417714315261841	0.07985547841492538	0.7724372347006631	0.5913148500391515	0.11176949941616068	0.7392352800611749	0.5026238369100418	0.0963200211601472	0.7308371827096088	0.4653151985115256	0.07926840800215992	0.6965690732078704	0.5266279527677972	
238	5.0638297872340425	0.33170059690142684	0.7076667713827967	0.7370047008764331	0.3191343895318239	0.3053013694578568	0.751527546074088	0.3133771133874143	-0.12575158357278918	0.7982379784787927	0.30376020059958203	-0.11205724033780257	0.6086287108631305	0.3484628654879396	-0.11318794477539831	0.6390978370013837	0.3218476465182696	-0.2129543628556126	0.8883643270359255	0.14426377914385627	0.7025118321665627	0.7330639619615148	0.17007097758776515	0.32420722481566655	0.715599974615082	0.1921716927997669	-0.12103671777015472	0.8200083844554198	0.14625358834268487	-0.10026494382457127	0.6172201173819106	0.11369873795583384	-0.10244726924406553	0.654511715991337	0.20265426184484328	-0.23312153249887518	0.9285223043724558	0.20108048482734853	1.2786915789138653	0.7058269027133669	0.1710794832358176	1.5220421906621706	0.6340976893191365	0.18608968334021725	1.3939842196037053	0.5538238398476898	0.3509767060848795	1.1902435072607016	0.7104107664647591	0.41497054372368375	0.9194561577007445	0.7849446430140832	0.4596140133124501	0.7036040375981759	0.6946796347714081	0.4632927281546343	0.6082474082349912	0.6427341144414179	0.4808570338504263	0.5944994851620283	0.6528723906774638	0.49247994209070717	0.5760345219206713	0.7020337436787587	0.04373654194699998	1.1739746375118816	0.745186991171626	0.05131780188148376	0.9021937027634597	0.750622089157208	0.07836431352107456	0.7529962640711655	0.6048802566048279	0.10558935306577591	0.7056785441620718	0.532848468593844	0.09123129941329783	0.6942747428575395	0.5054136844197823	0.07416057933749227	0.6683076938407565	0.5634228801251118	
239	5.085106382978723	0.33321638471224124	0.708160970545916	0.7358600928361425	0.3225750784064634	0.2970044050073732	0.7638192852520745	0.31071748431065666	-0.13176152667097057	0.8031293192810997	0.3109674487460869	-0.1121890496299173	0.6074298486578849	0.35410061804112075	-0.11611759141024794	0.644399983266619	0.3180290914394806	-0.21799648702403124	0.8916809250362076	0.14523012456255288	0.702962640999823	0.7321250595782167	0.16965495796470534	0.3280208524958316	0.7052535197782175	0.1900807187144103	-0.11818191079262617	0.8189448470460319	0.14689324389218023	-0.10245885403620489	0.618222299341344	0.1134094664675939	-0.10346526397329471	0.651461517437439	0.19983440756189094	-0.23168202423966514	0.9313899721933685	0.2032842577987134	1.2779582093665154	0.7056562946258135	0.17528613013008632	1.5212334915658317	0.6338095607036597	0.18913469973838315	1.3935264058274137	0.5494974006088333	0.353997441508377	1.1897779466206015	0.7064697560552496	0.4169878079630899	0.9187805711379757	0.7747975120178208	0.4493072930441029	0.6990716966049502	0.6758547636123563	0.44930892159231606	0.6119349418958422	0.6007867354447762	0.46586253446590326	0.6004258738434695	0.6115768443059043	0.4848181006630581	0.5755668129851017	0.6869941168764343	0.04849685787083811	1.1738000219890343	0.7439152491374557	0.055808740637228835	0.8979107733203525	0.7611536978637579	0.0751232709225874	0.7370783360129165	0.6225603994709923	0.09691883043939542	0.6768323447099256	0.5655660854611827	0.08391254384549726	0.6635298794579039	0.5491617030131828	0.06698234587941618	0.6445941131049696	0.6019941004602316	
